<svg width="401" height="96" viewBox="0 0 401 96" fill="#130C27" xmlns="http://www.w3.org/2000/svg">
<path d="M317.834 27.5039L300.067 68.4487H290.708L273.014 27.5039H283.25L295.753 56.7502L308.402 27.5039H317.834Z" fill="#130c27"/>
<path d="M349.201 29.3306C351.906 30.5736 353.953 32.2552 355.343 34.4487C356.805 36.6422 357.536 39.2743 357.536 42.3452C357.536 45.3429 356.805 47.9751 355.343 50.2417C353.88 52.5083 351.833 54.1899 349.201 55.3598C346.495 56.5296 343.351 57.1146 339.769 57.1146H331.507V68.5206H322.002V27.5758H339.769C343.351 27.5027 346.495 28.1607 349.201 29.3306ZM345.691 47.6826C347.153 46.4397 347.885 44.6849 347.885 42.4183C347.885 40.1517 347.153 38.3238 345.691 37.154C344.229 35.911 342.035 35.3261 339.184 35.3261H331.434V49.5105H339.184C342.035 49.5105 344.229 48.8525 345.691 47.6826Z" fill="#130c27"/>
<path d="M400.382 27.5039V68.4487H392.631L372.232 43.5894V68.4487H362.873V27.5039H370.697L391.096 52.3632V27.5039H400.382Z" fill="#130c27"/>
<path d="M162.024 38.8371V68.5221H153.762V65.0857C151.642 67.6447 148.498 68.9608 144.477 68.9608C141.698 68.9608 139.139 68.3028 136.873 67.0598C134.606 65.8168 132.851 63.9889 131.535 61.7224C130.219 59.3827 129.634 56.7505 129.634 53.6796C129.634 50.6088 130.292 47.9035 131.535 45.6369C132.851 43.2972 134.606 41.5424 136.873 40.2995C139.139 39.0565 141.698 38.3984 144.477 38.3984C148.279 38.3984 151.203 39.5683 153.397 41.9811V38.8371H162.024V38.8371ZM151.423 59.6751C152.885 58.2128 153.543 56.1656 153.543 53.6796C153.543 51.1937 152.812 49.1465 151.423 47.6841C149.96 46.2218 148.205 45.4175 146.012 45.4175C143.819 45.4175 141.991 46.1487 140.528 47.6841C139.066 49.1465 138.408 51.1937 138.408 53.6796C138.408 56.1656 139.139 58.2128 140.528 59.6751C141.991 61.1374 143.819 61.9417 146.012 61.9417C148.205 61.8686 150.033 61.1374 151.423 59.6751Z" fill="#130c27"/>
<path d="M194.78 27.5039H203.408V68.5218H194.78V27.5039Z" fill="#130c27"/>
<path d="M240.697 38.8371V68.5221H232.435V65.0857C230.315 67.6447 227.17 68.9608 223.149 68.9608C220.371 68.9608 217.812 68.3028 215.545 67.0598C213.279 65.8168 211.524 63.9889 210.208 61.7224C208.892 59.3827 208.307 56.7505 208.307 53.6796C208.307 50.6088 208.965 47.9035 210.208 45.6369C211.524 43.2972 213.279 41.5424 215.545 40.2995C217.812 39.0565 220.371 38.3984 223.149 38.3984C226.951 38.3984 229.876 39.5683 232.069 41.9811V38.8371H240.697V38.8371ZM230.095 59.6751C231.557 58.2128 232.215 56.1656 232.215 53.6796C232.215 51.1937 231.484 49.1465 230.095 47.6841C228.633 46.2218 226.878 45.4175 224.685 45.4175C222.491 45.4175 220.663 46.1487 219.201 47.6841C217.739 49.1465 217.081 51.1937 217.081 53.6796C217.081 56.1656 217.812 58.2128 219.201 59.6751C220.663 61.1374 222.491 61.9417 224.685 61.9417C226.878 61.8686 228.706 61.1374 230.095 59.6751Z" fill="#130c27"/>
<path d="M251.957 68.0834C249.617 67.4985 247.716 66.6942 246.327 65.8168L249.178 59.602C250.494 60.4794 252.103 61.1374 254.004 61.6492C255.905 62.1611 257.733 62.4535 259.561 62.4535C263.216 62.4535 265.044 61.5761 265.044 59.7482C265.044 58.8708 264.533 58.2859 263.582 57.9203C262.558 57.5548 261.096 57.2623 258.976 56.9698C256.563 56.6043 254.516 56.1656 252.98 55.7269C251.372 55.2151 250.056 54.4108 248.886 53.1678C247.716 51.9248 247.131 50.2432 247.131 47.9766C247.131 46.0756 247.643 44.4671 248.74 43.0047C249.836 41.5424 251.445 40.4457 253.492 39.6414C255.539 38.8371 258.025 38.3984 260.877 38.3984C262.997 38.3984 265.044 38.6178 267.165 39.0565C269.212 39.4952 270.967 40.1532 272.356 40.9575L269.504 47.0992C266.872 45.6369 264.021 44.9058 260.95 44.9058C259.122 44.9058 257.733 45.1982 256.782 45.71C255.832 46.2218 255.393 46.8799 255.393 47.6841C255.393 48.6346 255.905 49.2196 256.855 49.5852C257.879 49.9507 259.414 50.3163 261.608 50.6088C264.021 51.0475 265.995 51.413 267.603 51.9248C269.139 52.3635 270.528 53.2409 271.625 54.4108C272.795 55.6538 273.306 57.3354 273.306 59.5289C273.306 61.3568 272.722 63.0384 271.625 64.4276C270.528 65.8899 268.92 66.9867 266.799 67.791C264.679 68.5952 262.193 68.9608 259.268 68.9608C256.782 68.9608 254.369 68.6683 251.957 68.0834Z" fill="#130c27"/>
<path d="M188.127 60.9909C187.176 61.6489 185.933 62.1607 184.617 62.1607C183.447 62.1607 182.497 61.7952 181.912 61.1371C181.254 60.4791 180.961 59.4555 180.961 58.2125V45.4173H188.2V38.7637H180.961V27.5039H172.334V38.7637H167.727V45.4173H172.334V58.2856C172.334 61.7952 173.284 64.4273 175.258 66.2552C177.159 68.0831 179.938 68.9605 183.447 68.9605C184.837 68.9605 186.079 68.8143 187.322 68.5218C187.615 68.4487 187.907 68.3756 188.2 68.3025V60.9909H188.127Z" fill="#130c27"/>
<path d="M48.3292 92.928C23.0311 92.928 2.33938 72.6018 2.26627 47.6694C2.26627 35.5322 6.94568 24.053 15.5733 15.4985C24.1279 6.94394 35.5339 2.19141 47.6711 2.19141H47.7442C72.6767 2.26452 93.0028 22.8831 93.0028 48.2543V92.928H48.3292V92.928Z" fill="#bbbfc4"/>
<path d="M29.2465 79.2569C36.5554 79.2569 42.4805 73.3319 42.4805 66.023C42.4805 58.7141 36.5554 52.7891 29.2465 52.7891C21.9376 52.7891 16.0126 58.7141 16.0126 66.023C16.0126 73.3319 21.9376 79.2569 29.2465 79.2569Z" fill="#e7e7ea"/>
<path d="M47.7445 0C47.6714 0 47.6714 0 47.5983 0C34.8762 0 22.9583 4.97187 13.9651 13.9651C4.97185 22.9583 0 34.9493 0 47.7445C0.0731157 73.92 21.7154 95.1966 48.2564 95.1966H95.1235V48.3295C95.1966 21.7154 73.92 0.0731157 47.7445 0ZM64.1224 86.2765H51.1078V70.776C51.1078 56.884 39.9943 45.5511 26.3217 45.478C20.9111 45.478 15.7199 47.2327 11.406 50.4498C12.7221 46.5747 14.9156 42.992 17.9133 40.0674C23.0314 34.9493 29.8312 32.0978 37.0696 32.0978H37.1428C52.0584 32.1709 64.1224 44.6006 64.1224 59.8817V86.2765V86.2765ZM28.8807 55.5679C34.8762 55.5679 39.7749 60.4667 39.7749 66.4622C39.7749 72.4576 34.8762 77.3564 28.8807 77.3564C22.8852 77.3564 17.9864 72.4576 17.9864 66.4622C17.9864 60.4667 22.8852 55.5679 28.8807 55.5679ZM86.3496 86.2765H72.9695V59.9549C72.9695 39.7749 56.884 23.3239 37.1428 23.3239H37.0696C27.4183 23.3239 18.4251 27.0528 11.6254 33.8526C11.5523 33.9257 11.4791 33.9988 11.406 34.145C13.307 29.0269 16.3048 24.2744 20.3262 20.2531C27.6377 12.9415 37.4352 8.84701 47.8176 8.92012C69.0943 8.99324 86.4227 26.6141 86.4227 48.3295V86.2765H86.3496Z" fill="#130c27"/>
</svg>
